<svg xmlns="http://www.w3.org/2000/svg" width="36" height="37" viewBox="0 0 36 37">
    <path fill="#FFF" fill-rule="evenodd" d="M27.035 2.676a17.643 17.643 0 0 1 6.557 6.539C35.197 11.98 36 14.992 36 18.25s-.803 6.27-2.408 9.035a17.775 17.775 0 0 1-6.557 6.557C24.27 35.447 21.258 36.25 18 36.25s-6.27-.803-9.035-2.408a17.775 17.775 0 0 1-6.557-6.557C.803 24.52 0 21.508 0 18.25s.803-6.27 2.408-9.035a17.775 17.775 0 0 1 6.557-6.557C11.73 1.053 14.742.25 18 .25s6.27.809 9.035 2.426zM18 34.036c2.133 0 4.172-.417 6.117-1.249 1.946-.832 3.621-1.957 5.028-3.375 1.406-1.418 2.525-3.1 3.357-5.045a15.396 15.396 0 0 0 1.248-6.117c0-2.133-.416-4.172-1.248-6.117-.832-1.946-1.951-3.621-3.357-5.028-1.407-1.406-3.082-2.525-5.028-3.357A15.396 15.396 0 0 0 18 2.5c-2.133 0-4.172.416-6.117 1.248-1.946.832-3.621 1.951-5.028 3.357-1.406 1.407-2.525 3.082-3.357 5.028A15.396 15.396 0 0 0 2.25 18.25c0 1.71.264 3.37.791 4.975a14.835 14.835 0 0 0 2.25 4.341 17.644 17.644 0 0 0 3.393 3.41c1.289.985 2.736 1.74 4.341 2.268a15.84 15.84 0 0 0 4.975.791zm6.68-21.34c0 .304-.106.562-.317.773l-4.781 4.781 4.781 4.781c.14.14.24.305.3.492a.979.979 0 0 1 0 .58c-.06.2-.16.37-.3.51-.21.211-.474.317-.79.317-.317 0-.58-.106-.792-.317L18 19.832l-4.781 4.781c-.211.211-.475.317-.791.317-.317 0-.58-.106-.791-.317-.14-.14-.24-.31-.3-.51a.979.979 0 0 1 0-.58c.06-.187.16-.351.3-.492l4.781-4.781-4.781-4.781a1.073 1.073 0 0 1-.317-.791c0-.317.106-.58.317-.791.21-.211.474-.317.79-.317.317 0 .58.106.792.317L18 16.668l4.781-4.781c.211-.211.475-.317.791-.317.317 0 .58.106.791.317.211.21.317.48.317.808z"/>
</svg>
