<svg xmlns="http://www.w3.org/2000/svg" width="21" height="21" viewBox="0 0 21 21">
    <path fill="#FFB438" fill-rule="evenodd" d="M20 9.488c.013.04.02.072.02.098V19a1.248 1.248 0 0 1-1.25 1.25H1.27c-.339 0-.632-.12-.88-.361A1.192 1.192 0 0 1 .02 19V9.645c0-.144.035-.29.107-.44.072-.15.146-.27.225-.361.078-.091.156-.176.234-.254L8.73.777C9.082.426 9.525.25 10.06.25c.533 0 .976.176 1.328.527l8.144 7.871.117.118c.04.039.072.078.098.117l.02.02c.039.038.071.08.097.126.026.046.05.095.069.147.02.052.035.104.048.156.013.052.02.104.02.156zM5.293 14.43L1.27 10.895v7.246l4.023-3.711zm1.289.527L2.168 19H17.93l-7.5-6.738a.727.727 0 0 0-.47-.157.75.75 0 0 0-.487.176l-2.754 2.54-.137.136zm8.223-.43l3.965 3.555v-7.07l-3.965 3.515zM2.05 8.902h-.04l-.527.508 4.727 4.18 2.46-2.266c.248-.208.528-.345.84-.41.313-.065.62-.065.919 0 .3.065.566.195.8.39l2.657 2.364 4.726-4.2-1.074-1.073h.02l-7.051-6.739a.652.652 0 0 0-.45-.176.652.652 0 0 0-.449.176L2.051 8.902z"/>
</svg>
