<svg xmlns="http://www.w3.org/2000/svg" xmlns:xlink="http://www.w3.org/1999/xlink" width="260" height="53" viewBox="0 0 260 53">
    <defs>
        <path id="a" d="M0 .053h52.99v52.936H0z"/>
    </defs>
    <g fill="none" fill-rule="evenodd">
        <path fill="#242D3C" d="M70.27 21.49h-6.15V16H83.5v5.49h-6.15V37h-7.08V21.49zm26.52 15.99c-2.26 0-4.29-.47-6.09-1.41-1.8-.94-3.21-2.245-4.23-3.915-1.02-1.67-1.53-3.555-1.53-5.655s.51-3.985 1.53-5.655c1.02-1.67 2.43-2.975 4.23-3.915 1.8-.94 3.83-1.41 6.09-1.41s4.29.47 6.09 1.41c1.8.94 3.21 2.245 4.23 3.915 1.02 1.67 1.53 3.555 1.53 5.655s-.51 3.985-1.53 5.655c-1.02 1.67-2.43 2.975-4.23 3.915-1.8.94-3.83 1.41-6.09 1.41zm0-5.73c.88 0 1.675-.215 2.385-.645.71-.43 1.275-1.04 1.695-1.83.42-.79.63-1.715.63-2.775 0-1.06-.21-1.985-.63-2.775-.42-.79-.985-1.4-1.695-1.83-.71-.43-1.505-.645-2.385-.645-.88 0-1.675.215-2.385.645-.71.43-1.275 1.04-1.695 1.83-.42.79-.63 1.715-.63 2.775 0 1.06.21 1.985.63 2.775.42.79.985 1.4 1.695 1.83.71.43 1.505.645 2.385.645zM122.08 16c1.94 0 3.63.32 5.07.96 1.44.64 2.55 1.56 3.33 2.76.78 1.2 1.17 2.6 1.17 4.2s-.39 3-1.17 4.2c-.78 1.2-1.89 2.12-3.33 2.76-1.44.64-3.13.96-5.07.96h-3.03V37h-7.08V16h10.11zm-.45 10.38c.96 0 1.68-.215 2.16-.645.48-.43.72-1.035.72-1.815s-.24-1.385-.72-1.815c-.48-.43-1.2-.645-2.16-.645h-2.58v4.92h2.58zM144.82 16c1.94 0 3.63.32 5.07.96 1.44.64 2.55 1.56 3.33 2.76.78 1.2 1.17 2.6 1.17 4.2s-.39 3-1.17 4.2c-.78 1.2-1.89 2.12-3.33 2.76-1.44.64-3.13.96-5.07.96h-3.03V37h-7.08V16h10.11zm-.45 10.38c.96 0 1.68-.215 2.16-.645.48-.43.72-1.035.72-1.815s-.24-1.385-.72-1.815c-.48-.43-1.2-.645-2.16-.645h-2.58v4.92h2.58zm26.34 6.96h-7.98L161.32 37h-7.2l9.18-21h6.96l9.18 21h-7.32l-1.41-3.66zm-1.95-5.1l-2.04-5.28-2.04 5.28h4.08zM181.33 16h7.08v15.51h9.48V37h-16.56V16zm19.26 0h7.08v15.51h9.48V37h-16.56V16zm36.72 15.66V37h-17.46V16h17.07v5.34h-10.11v2.46h8.88v5.1h-8.88v2.76h10.5zm8.04-10.17h-6.15V16h19.38v5.49h-6.15V37h-7.08V21.49z"/>
        <mask id="b" fill="#fff">
            <use xlink:href="#a"/>
        </mask>
        <path fill="#242D3C" d="M36.157 17.627H16.832a.32.32 0 0 1-.227-.548l9.443-9.433a.633.633 0 0 1 .894 0l9.442 9.433a.32.32 0 0 1-.227.548M21.847 41.2L8.183 27.549A.32.32 0 0 1 8.41 27h13.354c.349 0 .632.283.632.631v13.34a.321.321 0 0 1-.549.228m22.96-13.651l-13.665 13.65a.321.321 0 0 1-.548-.226v-13.34c0-.35.283-.632.632-.632H44.58a.32.32 0 0 1 .227.548M25.95.278L.226 25.978c-.301.3-.301.786 0 1.087l25.724 25.7c.301.3.789.3 1.09 0l25.724-25.7c.3-.3.3-.788 0-1.088L27.04.277a.77.77 0 0 0-1.089 0" mask="url(#b)"/>
    </g>
</svg>
