<svg xmlns="http://www.w3.org/2000/svg" width="21" height="20" viewBox="0 0 21 20">
    <path fill="#FFB438" fill-rule="evenodd" d="M10.078.25c2.24 0 4.05.736 5.43 2.207 1.328 1.432 1.992 3.236 1.992 5.41 0 3.125-2.083 7.083-6.25 11.875-.286.339-.612.508-.977.508h-.058a1.03 1.03 0 0 1-.488-.137 1.958 1.958 0 0 1-.352-.224.861.861 0 0 1-.137-.147 7.658 7.658 0 0 1-.351-.39c-.521-.6-.925-1.068-1.211-1.407-.287-.338-.69-.83-1.211-1.474a26.028 26.028 0 0 1-1.24-1.64c-.306-.45-.655-1-1.045-1.651a12 12 0 0 1-.899-1.778 14.37 14.37 0 0 1-.547-1.738A7.407 7.407 0 0 1 2.5 7.867c0-1.015.205-1.992.615-2.93a7.936 7.936 0 0 1 1.631-2.431A7.757 7.757 0 0 1 7.158.866a7.166 7.166 0 0 1 2.92-.616zm.235 18.652c3.958-4.544 5.937-8.222 5.937-11.035 0-.82-.124-1.601-.371-2.344a6.556 6.556 0 0 0-1.104-2.03c-.488-.613-1.136-1.098-1.943-1.456-.807-.358-1.725-.537-2.754-.537a6.094 6.094 0 0 0-3.154.86 6.416 6.416 0 0 0-2.315 2.333 6.197 6.197 0 0 0-.859 3.174c0 .508.072 1.045.215 1.612.143.566.316 1.093.517 1.582.202.488.492 1.035.87 1.64.377.606.71 1.12.996 1.543.286.423.677.94 1.172 1.553.494.612.878 1.077 1.152 1.396.273.32.657.765 1.152 1.338l.332.371.078.078a.221.221 0 0 0 .079-.078zM10.02 4.02c.507 0 .992.1 1.455.302.462.202.862.469 1.2.801.34.332.606.73.802 1.191a3.7 3.7 0 0 1 .293 1.456c0 1.041-.365 1.927-1.094 2.656-.73.729-1.612 1.094-2.647 1.094a3.637 3.637 0 0 1-2.656-1.094C6.637 9.696 6.27 8.81 6.27 7.77c0-.404.061-.795.185-1.172a3.56 3.56 0 0 1 .537-1.035c.235-.313.505-.583.81-.811a3.718 3.718 0 0 1 1.036-.537c.384-.13.778-.195 1.182-.195zm0 6.25c.533 0 1.015-.157 1.445-.47.69-.507 1.035-1.19 1.035-2.05 0-.69-.244-1.28-.732-1.768A2.409 2.409 0 0 0 10 5.25c-.69 0-1.28.244-1.768.732A2.409 2.409 0 0 0 7.5 7.75c0 .69.247 1.283.742 1.777a2.425 2.425 0 0 0 1.778.743z"/>
</svg>
