<svg xmlns="http://www.w3.org/2000/svg" width="21" height="20" viewBox="0 0 21 20">
    <path fill="#FFB438" fill-rule="evenodd" d="M5.117.973C5.86 1.988 6.732 3.29 7.734 4.879c.248.417.209.93-.117 1.543A80.74 80.74 0 0 1 6.68 8.16c.104.156.224.32.361.488.137.17.283.349.44.538.156.188.325.38.507.576l.576.615c.202.215.414.433.635.654 1.146 1.146 2.097 1.992 2.852 2.54.846-.495 1.426-.821 1.738-.977.326-.183.638-.274.938-.274.234 0 .436.052.605.157a67.996 67.996 0 0 1 3.945 2.617c.26.208.417.482.47.82.038.352-.073.73-.333 1.133-.104.156-.306.417-.605.781-.274.339-.687.768-1.24 1.29-.554.52-1.006.78-1.358.78h-.04c-1.34-.052-2.831-.579-4.472-1.582-1.64-1.002-3.437-2.474-5.39-4.414C2.415 9.996.417 6.708.312 4.04c0-.352.26-.814.782-1.387.508-.547.93-.957 1.27-1.23.338-.26.611-.462.82-.606.273-.195.592-.293.957-.293.416 0 .742.15.976.45zm-1.25.8c-.508.365-1.002.788-1.484 1.27-.469.469-.742.814-.82 1.035.104 2.344 1.975 5.332 5.615 8.965s6.637 5.514 8.994 5.645c.195-.079.527-.359.996-.84a13.63 13.63 0 0 0 1.27-1.504c.039-.052.065-.101.078-.147a.21.21 0 0 0 0-.127 108.024 108.024 0 0 0-3.79-2.539.921.921 0 0 0-.39.117c-.052.026-.26.144-.625.352s-.723.404-1.074.586l-.645.39-.644-.43c-.82-.559-1.83-1.45-3.028-2.675-1.172-1.185-2.05-2.194-2.636-3.027l-.47-.606.391-.683.938-1.7a.921.921 0 0 0 .117-.39 111.929 111.929 0 0 0-2.48-3.77h-.04a.481.481 0 0 0-.273.078z"/>
</svg>
