<svg xmlns="http://www.w3.org/2000/svg" xmlns:xlink="http://www.w3.org/1999/xlink" width="89" height="54" viewBox="0 0 89 54">
    <defs>
        <path id="a" d="M0 53.95h88.116V.63H0z"/>
    </defs>
    <g fill="none" fill-rule="evenodd">
        <path fill="#242D3C" d="M71.8 21.303h-7.475v11.429h17.532zM16.624 46.821h-8.94V30.742h2.988v13.093h5.952zM4.015.65v2.986h54.051v40.199H30.923v2.986h30.13V.65z"/>
        <path fill="#242D3C" d="M7.685 10.09h2.987V2.144H7.685zM9.178 39.428h3.697V36.44H9.178zM50.734 39.428h2.868V36.44h-2.868zM44.997 39.428h2.868V36.44h-2.868zM39.26 39.428h2.87V36.44h-2.87zM82.926 39.428h3.696V36.44h-3.696z"/>
        <path fill="#FFB438" d="M15.137 32.732h38.466V8.102H15.137z"/>
        <path fill="#242D3C" d="M58.066 15.045v31.777h7.877v-2.987h-4.89V18.032H73.28l11.85 13.466v12.337H80.24v2.987h7.875V30.37L74.631 15.045z"/>
        <g transform="translate(0 .02)">
            <path fill="#242D3C" d="M23.774 39.652a5.662 5.662 0 0 0-5.656 5.655 5.662 5.662 0 0 0 5.656 5.656 5.662 5.662 0 0 0 5.655-5.656 5.662 5.662 0 0 0-5.655-5.655m0 14.298c-4.766 0-8.643-3.877-8.643-8.643 0-4.765 3.877-8.643 8.643-8.643 4.765 0 8.642 3.878 8.642 8.643 0 4.766-3.877 8.643-8.642 8.643"/>
            <mask id="b" fill="#fff">
                <use xlink:href="#a"/>
            </mask>
            <path fill="#FFB438" d="M22.34 46.8h2.868v-2.986h-2.869z" mask="url(#b)"/>
            <path fill="#242D3C" d="M73.091 39.652a5.661 5.661 0 0 0-5.654 5.655 5.662 5.662 0 0 0 5.654 5.656 5.663 5.663 0 0 0 5.656-5.656 5.662 5.662 0 0 0-5.656-5.655m0 14.298c-4.764 0-8.641-3.877-8.641-8.643 0-4.765 3.877-8.643 8.641-8.643 4.766 0 8.643 3.878 8.643 8.643 0 4.766-3.877 8.643-8.643 8.643" mask="url(#b)"/>
            <path fill="#FFB438" d="M71.657 46.8h2.868v-2.986h-2.868z" mask="url(#b)"/>
            <path fill="#242D3C" d="M0 16.152h23.555v-2.987H0zM10.613 27.626h11.794v-2.987H10.613zM5.163 21.89h23.424v-2.988H5.163zM2.366 39.407h2.868V36.42H2.366zM29.734 16.152h2.869v-2.987h-2.869zM1.148 27.626h6.597v-2.987H1.148z" mask="url(#b)"/>
        </g>
    </g>
</svg>
