<svg xmlns="http://www.w3.org/2000/svg" xmlns:xlink="http://www.w3.org/1999/xlink" width="117" height="117" viewBox="0 0 117 117">
    <defs>
        <path id="a" d="M.135.347h22.467v22.47H.135z"/>
        <path id="c" d="M.952.62h20.38V21H.952z"/>
        <path id="e" d="M0 .347h22.47v22.468H0z"/>
        <path id="g" d="M.273.618h20.38V21H.274z"/>
    </defs>
    <g fill="none" fill-rule="evenodd">
        <path fill="#FFB438" d="M99.595 59.301c0 22.806-18.487 41.293-41.292 41.293-22.807 0-41.294-18.487-41.294-41.293 0-22.805 18.487-41.292 41.294-41.292 22.805 0 41.292 18.487 41.292 41.292"/>
        <path fill="#242D3C" d="M104.044 6.74l6.82 6.821 2.494-9.318zM66.748 54.101l-3.243-3.244 29.602-29.602 3.245 3.244zM21.326 99.514l-3.243-3.244L49.86 64.493l3.244 3.244z"/>
        <g transform="translate(94 .653)">
            <mask id="b" fill="#fff">
                <use xlink:href="#a"/>
            </mask>
            <path fill="#242D3C" d="M16.585 22.818l-4.432-1.187 3.962-14.795L1.322 10.8.135 6.368 22.603.347z" mask="url(#b)"/>
        </g>
        <path fill="#242D3C" d="M26.531 107.005a2.29 2.29 0 0 1-1.62-.671L11.263 92.696a2.296 2.296 0 0 1 0-3.244l31.778-31.776 3.244 3.243-30.155 30.155 10.4 10.393L56.676 71.32l3.245 3.244-31.769 31.769a2.29 2.29 0 0 1-1.622.672M73.567 60.918l-3.244-3.243 32.503-32.505H94.73a2.295 2.295 0 0 1-2.294-2.294V14.78L59.93 47.283l-3.244-3.244L93.107 7.62a2.293 2.293 0 0 1 3.916 1.622v11.342h11.342a2.292 2.292 0 0 1 1.621 3.916L73.567 60.92z"/>
        <path fill="#242D3C" d="M9.315 97.894l10.394 10.394 3.576-3.575-10.396-10.396-3.574 3.577zm10.394 15.932a2.289 2.289 0 0 1-1.622-.672L4.448 99.516a2.293 2.293 0 0 1 0-3.245l6.819-6.82c.86-.86 2.385-.86 3.244 0l13.64 13.641a2.292 2.292 0 0 1 0 3.244l-6.82 6.818a2.29 2.29 0 0 1-1.622.672z"/>
        <g transform="translate(0 95.653)">
            <mask id="d" fill="#fff">
                <use xlink:href="#c"/>
            </mask>
            <path fill="#242D3C" d="M12.89 21a11.862 11.862 0 0 1-8.442-3.499 11.854 11.854 0 0 1-3.496-8.44c0-3.19 1.242-6.188 3.497-8.442l3.243 3.245a7.3 7.3 0 0 0-2.153 5.197c0 1.963.765 3.81 2.153 5.195a7.302 7.302 0 0 0 5.198 2.156 7.3 7.3 0 0 0 5.195-2.153l3.247 3.241A11.857 11.857 0 0 1 12.89 21" mask="url(#d)"/>
        </g>
        <path fill="#242D3C" d="M5.741 13.559l6.82-6.82-9.317-2.495zM95.272 99.516l-75.018-75.02 3.245-3.243 75.017 75.019z"/>
        <g transform="translate(0 .653)">
            <mask id="f" fill="#fff">
                <use xlink:href="#e"/>
            </mask>
            <path fill="#242D3C" d="M6.02 22.815L0 .347l22.47 6.017-1.185 4.433L6.489 6.835l3.965 14.793z" mask="url(#f)"/>
        </g>
        <path fill="#242D3C" d="M13.775 25.168l76.3 76.301 10.395-10.395-76.299-76.302v8.103a2.294 2.294 0 0 1-2.294 2.293h-8.102zm76.3 81.84a2.28 2.28 0 0 1-1.623-.673L6.614 24.496a2.292 2.292 0 0 1 1.622-3.916h11.347V9.233a2.294 2.294 0 0 1 3.916-1.62l81.838 81.838a2.296 2.296 0 0 1 0 3.245l-13.64 13.64a2.28 2.28 0 0 1-1.623.671z"/>
        <path fill="#242D3C" d="M93.318 104.713l3.576 3.575 10.395-10.394-3.575-3.577-10.396 10.396zm3.576 9.115a2.288 2.288 0 0 1-1.622-.673l-6.82-6.818a2.293 2.293 0 0 1 0-3.246l13.64-13.64a2.297 2.297 0 0 1 1.622-.672h.001c.61 0 1.192.243 1.622.672l6.818 6.821a2.295 2.295 0 0 1 0 3.244l-13.639 13.638a2.283 2.283 0 0 1-1.622.674z"/>
        <g transform="translate(95 95.653)">
            <mask id="h" fill="#fff">
                <use xlink:href="#g"/>
            </mask>
            <path fill="#242D3C" d="M8.716 21a11.86 11.86 0 0 1-8.443-3.499l3.244-3.242a7.31 7.31 0 0 0 5.199 2.153 7.3 7.3 0 0 0 5.194-2.153 7.305 7.305 0 0 0 2.155-5.199 7.295 7.295 0 0 0-2.154-5.196L17.154.618a11.862 11.862 0 0 1 3.5 8.442 11.86 11.86 0 0 1-3.5 8.442A11.854 11.854 0 0 1 8.716 21" mask="url(#h)"/>
        </g>
    </g>
</svg>
