<svg xmlns="http://www.w3.org/2000/svg" xmlns:xlink="http://www.w3.org/1999/xlink" width="81" height="74" viewBox="0 0 81 74">
    <defs>
        <path id="a" d="M0 .312h74.425V62.4H0z"/>
        <path id="c" d="M0 73.49h80.608V0H0z"/>
    </defs>
    <g fill="none" fill-rule="evenodd">
        <g transform="translate(0 11.09)">
            <mask id="b" fill="#fff">
                <use xlink:href="#a"/>
            </mask>
            <path fill="#242D3C" d="M49.41 59.414h6.09l4.377-9.103.346-.228c7.128-4.68 11.217-11.55 11.217-18.845 0-13.501-13.897-24.486-30.98-24.486-3.243 0-6.44.397-9.503 1.18l-.844.214-.603-.628c-2.261-2.358-5.195-3.798-8.384-4.14v8.73l-.662.443c-2.046 1.368-4.017 3.14-6.026 5.415-2.825 3.204-6.94 5.177-11.452 5.534v6.913c3.676 9.214 10.614 16.715 19.562 21.14l.83.41v7.45h6.045l3.114-4.452.934.164c1.168.203 2.418.358 3.716.46l.177.013c.408.033.817.057 1.226.076.185.01.371.016.555.023l.233.009a33.42 33.42 0 0 0 .749.016h.332c2.253 0 4.528-.199 6.763-.593l1.507-.264.681 4.549zm7.966 2.986H46.838l-.612-4.092a42.126 42.126 0 0 1-4.273.372v.027l-1.493.002a40.212 40.212 0 0 1-1.21-.021l-.183-.007c-.224-.009-.422-.015-.618-.024a42.35 42.35 0 0 1-1.32-.082l-.176-.014a44.085 44.085 0 0 1-3.05-.343L30.978 62.4H20.393v-8.594C11.096 48.961 3.91 40.98.103 31.242L0 30.979V20.574h1.493c4.236 0 8.138-1.67 10.707-4.583 1.967-2.23 3.917-4.023 5.941-5.464V.312h1.492c4.29 0 8.309 1.6 11.412 4.525a41.502 41.502 0 0 1 9.415-1.07c18.729 0 33.965 12.323 33.965 27.471 0 8.198-4.446 15.87-12.214 21.108L57.376 62.4z" mask="url(#b)"/>
        </g>
        <path fill="#242D3C" d="M72.932 43.82v-2.986a4.695 4.695 0 0 0 4.69-4.69h2.986c0 4.233-3.443 7.676-7.676 7.676M20.517 37.756a4.605 4.605 0 0 1-4.598-4.6h2.986c0 .89.723 1.614 1.612 1.614.888 0 1.612-.724 1.612-1.613h2.985c0 2.535-2.062 4.599-4.597 4.599M41.623 50.595h-2.26c-1.3 0-2.525-.505-3.45-1.425a4.865 4.865 0 0 1-1.429-3.459h2.985a1.893 1.893 0 0 0 1.894 1.899h2.26a1.89 1.89 0 0 0 1.89-1.899c0-.507-.195-.98-.549-1.332a1.887 1.887 0 0 0-1.341-.559h-2.26a4.847 4.847 0 0 1-3.453-1.431 4.823 4.823 0 0 1-1.426-3.446c0-1.305.507-2.531 1.426-3.453a4.854 4.854 0 0 1 3.453-1.43h2.26c1.3 0 2.525.507 3.448 1.427a4.86 4.86 0 0 1 1.428 3.456h-2.986a1.89 1.89 0 0 0-1.89-1.898h-2.26a1.888 1.888 0 0 0-1.894 1.898c0 .508.195.98.55 1.33.363.365.838.563 1.344.563h2.26c1.301 0 2.526.507 3.45 1.429a4.824 4.824 0 0 1 1.426 3.446 4.858 4.858 0 0 1-1.425 3.454 4.862 4.862 0 0 1-3.451 1.43"/>
        <mask id="d" fill="#fff">
            <use xlink:href="#c"/>
        </mask>
        <path fill="#242D3C" d="M38.997 35.552h2.986V32.08h-2.986zM38.997 52.573h2.986v-3.47h-2.986z" mask="url(#d)"/>
        <path fill="#FFB438" d="M40.49 11.796a5.905 5.905 0 0 1-5.896-5.9A5.903 5.903 0 0 1 40.489 0c3.255 0 5.9 2.645 5.9 5.897 0 3.252-2.645 5.899-5.9 5.899" mask="url(#d)"/>
    </g>
</svg>
