<svg xmlns="http://www.w3.org/2000/svg" xmlns:xlink="http://www.w3.org/1999/xlink" width="101" height="124" viewBox="0 0 101 124">
    <defs>
        <path id="a" d="M0 .539h100.805v100.252H0z"/>
    </defs>
    <g fill="none" fill-rule="evenodd">
        <path fill="#FFB438" d="M8.837 113.314l15.708-5.563 5.564 15.71 14.822-31.077-2.806-2.862-10.997 4.355-4.126-11.09-3.536-.148zM73.804 82.787l-4.122 11.09-10.998-4.355-2.806 2.867 14.818 31.072 5.566-15.71 15.708 5.563L77.34 82.64zM78.381 51.09c0 15.453-12.525 27.979-27.979 27.979-15.452 0-27.978-12.526-27.978-27.98 0-15.45 12.526-27.978 27.978-27.978 15.454 0 27.98 12.528 27.98 27.979"/>
        <path fill="#FFF" d="M50.403 37.33l4.473 9.06 9.998 1.453-7.235 7.05 1.705 9.957-8.941-4.7-8.941 4.7 1.706-9.957-7.233-7.05 9.998-1.453z"/>
        <g transform="translate(0 .461)">
            <mask id="b" fill="#fff">
                <use xlink:href="#a"/>
            </mask>
            <path fill="#242D3C" d="M42.697 86.367l7.71 7.869 7.705-7.87 10.235 4.055 3.839-10.323 11.01-.458-.692-10.991 9.867-4.903-5.105-9.758 7.02-8.487-8.632-6.844 2.964-10.605-10.67-2.741-1.605-10.898-10.862 1.842-5.906-9.302-9.168 6.097-9.174-6.097-5.901 9.302-10.864-1.842-1.608 10.898-10.67 2.741 2.966 10.605-8.636 6.844 7.027 8.487-5.106 9.758 9.864 4.903-.69 10.991 11.005.458 3.841 10.323 10.236-4.054zm7.71 14.424l-8.854-9.038-11.757 4.657-4.412-11.856-12.64-.526.793-12.628-11.33-5.631L8.07 54.564 0 44.816l9.918-7.86-3.406-12.181 12.255-3.149 1.846-12.518 12.48 2.115L39.867.54l10.538 7.002L60.937.539l6.782 10.684 12.477-2.115 1.848 12.518 12.252 3.149-3.404 12.181 9.913 7.86-8.061 9.748 5.863 11.205L87.274 71.4l.793 12.628-12.643.526-4.41 11.856-11.757-4.656-8.85 9.037z" mask="url(#b)"/>
        </g>
    </g>
</svg>
